<?xml version="1.0" encoding="utf-8"?>
<!-- Generator: Adobe Illustrator 23.0.3, SVG Export Plug-In . SVG Version: 6.00 Build 0)  -->
<svg version="1.1" id="Layer_1" xmlns="http://www.w3.org/2000/svg" xmlns:xlink="http://www.w3.org/1999/xlink" x="0px" y="0px"
	 viewBox="0 0 411.3 99.4" style="enable-background:new 0 0 411.3 99.4;" xml:space="preserve">
<style type="text/css">
	.st0{fill:#59C1E8;}
	.st1{fill:#FFFFFF;}
	.st2{fill:#464D56;}
	.st3{fill-rule:evenodd;clip-rule:evenodd;fill:#FFFFFF;}
</style>
<title>Asset 2</title>
<path class="st0" d="M355.8,11.5h34c11.9,0,21.5,9.6,21.5,21.5l0,0c0,11.9-9.6,21.5-21.5,21.5h-34c-11.9,0-21.5-9.6-21.5-21.5l0,0
	C334.3,21.1,343.9,11.5,355.8,11.5z"/>
<path class="st1" d="M353.8,22h3.8v17h7.9v3.4h-11.7V22z"/>
<path class="st1" d="M370.1,21c1.2,0,2.2,1,2.2,2.2s-1,2.2-2.2,2.2c-1.2,0.1-2.3-0.8-2.4-2c-0.1-1.2,0.8-2.3,2-2.4
	C369.8,21,370,21,370.1,21z M371.9,42.4h-3.6V28.6h3.6V42.4z"/>
<path class="st1" d="M380.7,28.6h2.9v2.9h-2.9v10.9h-3.6V31.5h-2.5v-2.9h2.5v-5.3h3.6V28.6z"/>
<path class="st1" d="M399.5,36.7h-10.5c0.2,1.9,1.8,3,3.8,3c1.4,0.1,2.7-0.6,3.5-1.8c0.9,0.5,1.8,1,2.8,1.5
	c-2.3,3.4-6.9,4.4-10.3,2.1c-2-1.3-3.3-3.6-3.3-6.1c-0.1-3.8,2.9-7,6.7-7.2c0.2,0,0.3,0,0.5,0c3.8-0.1,6.9,2.9,7,6.6
	c0,0.2,0,0.4,0,0.5C399.6,35.8,399.5,36.3,399.5,36.7z M396,34.2c-0.2-1.7-1.7-3-3.5-2.9c-1.8-0.1-3.4,1.1-3.7,2.9H396z"/>
<g>
	<path class="st2" d="M29,17.7v53.7H14.5h-3.3C5,71.5,0,66.5,0,60.3V14C0,6.4,4.8,0.5,11.1,0c0.5,0,0.5,0,1,0h0.5c1,0,1.5,0,1.9,0
		H15c3.9,0.5,7.3,2.1,9.7,5.4C27.6,8.6,29,12.9,29,17.7z"/>
	<path class="st0" d="M93.8,17.9v74.4c0,0.7-0.3,1.5-0.8,2l-3.8,3.8c-1.1,1.1-2.8,1.1-3.9,0l-2.7-2.6c-1.1-1.1-2.8-1.1-3.9,0
		l-2.7,2.6c-1.1,1.1-2.8,1.1-3.9,0l-2.6-2.6c-1.1-1.1-2.9-1.1-4,0.1l-2.7,2.9c-1.1,1.1-2.9,1.2-4,0.1L56.1,96
		c-1.1-1.1-2.8-1.1-3.9,0l-2.7,2.6c-1.1,1.1-2.8,1.1-3.9,0L42.9,96c-1.1-1.1-2.8-1.1-3.9,0l-2.7,2.6c-1.1,1.1-2.8,1.1-3.9,0
		l-3.8-3.8c-0.5-0.5-0.8-1.2-0.8-2V17.9c0-2.1-1.4-7.4-5.5-13C19.4,1,15.3,0.2,12.9,0h-1.8c0,0,0.7-0.1,1.8,0l62.7,0
		C85.5,0,93.8,8.2,93.8,17.9z"/>
	<path class="st3" d="M79.1,25c0,0.7-0.6,1.3-1.3,1.3H51.4c-0.7,0-1.3-0.6-1.3-1.3c0-0.7,0.6-1.3,1.3-1.3h26.4
		C78.5,23.7,79.1,24.3,79.1,25z"/>
	<path class="st3" d="M79.1,38.2c0,0.7-0.6,1.3-1.3,1.3H51.4c-0.7,0-1.3-0.6-1.3-1.3c0-0.7,0.6-1.3,1.3-1.3h26.4
		C78.5,36.9,79.1,37.5,79.1,38.2z"/>
	<path class="st3" d="M44.8,50.1c0,1.5-1.2,2.6-2.6,2.6s-2.6-1.2-2.6-2.6c0-1.5,1.2-2.6,2.6-2.6S44.8,48.6,44.8,50.1z"/>
	<path class="st3" d="M44.8,36.9c0,1.5-1.2,2.6-2.6,2.6s-2.6-1.2-2.6-2.6s1.2-2.6,2.6-2.6S44.8,35.4,44.8,36.9z"/>
	<path class="st3" d="M44.8,23.7c0,1.5-1.2,2.6-2.6,2.6s-2.6-1.2-2.6-2.6c0-1.5,1.2-2.6,2.6-2.6S44.8,22.2,44.8,23.7z"/>
	<path class="st3" d="M44.8,63.3c0,1.5-1.2,2.6-2.6,2.6s-2.6-1.2-2.6-2.6s1.2-2.6,2.6-2.6S44.8,61.8,44.8,63.3z"/>
	<path class="st3" d="M79.1,51.4c0,0.7-0.6,1.3-1.3,1.3H51.4c-0.7,0-1.3-0.6-1.3-1.3c0-0.7,0.6-1.3,1.3-1.3h26.4
		C78.5,50.1,79.1,50.7,79.1,51.4z"/>
	<path class="st3" d="M79.1,64.6c0,0.7-0.6,1.3-1.3,1.3H51.4c-0.7,0-1.3-0.6-1.3-1.3c0-0.7,0.6-1.3,1.3-1.3h26.4
		C78.5,63.3,79.1,63.9,79.1,64.6z"/>
</g>
<g>
	<g>
		<path class="st2" d="M136.9,78.8c-7.7,0-13.5-2.1-17.5-6.4c-4-4.3-6-10.3-6-18.2c0-3.9,0.6-7.4,1.8-10.4c1.2-3.1,2.9-5.6,5-7.8
			c2.1-2.1,4.7-3.7,7.6-4.8c2.9-1.1,6.1-1.6,9.6-1.6c2,0,3.8,0.1,5.4,0.4c1.6,0.3,3.1,0.6,4.3,1c1.2,0.4,2.2,0.8,3.1,1.2
			c0.8,0.4,1.4,0.7,1.8,1l-3.1,8.6c-1.5-0.8-3.1-1.4-5.1-2c-1.9-0.5-4.1-0.8-6.6-0.8c-1.6,0-3.2,0.3-4.8,0.8
			c-1.6,0.5-2.9,1.4-4.1,2.6c-1.2,1.2-2.2,2.8-2.9,4.7c-0.7,1.9-1.1,4.2-1.1,6.9c0,2.2,0.2,4.2,0.7,6.1c0.5,1.9,1.2,3.5,2.3,4.9
			c1.1,1.4,2.5,2.4,4.2,3.2c1.7,0.8,3.8,1.2,6.3,1.2c1.5,0,2.9-0.1,4.1-0.3c1.2-0.2,2.3-0.4,3.3-0.6c1-0.2,1.8-0.5,2.5-0.8
			c0.7-0.3,1.4-0.6,2-0.9l2.9,8.5c-1.5,0.9-3.6,1.7-6.3,2.4C143.7,78.4,140.5,78.8,136.9,78.8z"/>
		<path class="st2" d="M158.8,77.8V26.7L169,25v17.1c0.7-0.2,1.6-0.4,2.6-0.6c1.1-0.2,2.1-0.3,3.1-0.3c2.9,0,5.3,0.4,7.2,1.2
			c1.9,0.8,3.5,1.9,4.6,3.4c1.2,1.5,2,3.2,2.4,5.2c0.5,2,0.7,4.2,0.7,6.7v20.2h-10.1v-19c0-3.3-0.4-5.6-1.3-6.9
			c-0.8-1.4-2.4-2-4.7-2c-0.9,0-1.8,0.1-2.6,0.2c-0.8,0.2-1.5,0.3-2.1,0.5v27.2H158.8z"/>
		<path class="st2" d="M211.8,41.1c3,0,5.5,0.3,7.5,1c2,0.7,3.6,1.7,4.8,2.9c1.2,1.3,2.1,2.8,2.6,4.6c0.5,1.8,0.7,3.8,0.7,6.1v21.1
			c-1.5,0.3-3.5,0.7-6.1,1.1c-2.6,0.4-5.7,0.6-9.4,0.6c-2.3,0-4.4-0.2-6.3-0.6c-1.9-0.4-3.5-1.1-4.9-2c-1.4-0.9-2.4-2.1-3.1-3.6
			c-0.7-1.5-1.1-3.3-1.1-5.5c0-2.1,0.4-3.9,1.3-5.3c0.8-1.5,2-2.6,3.4-3.5c1.4-0.9,3-1.5,4.8-1.9c1.8-0.4,3.7-0.6,5.6-0.6
			c1.3,0,2.5,0.1,3.5,0.2c1,0.1,1.8,0.3,2.5,0.4v-1c0-1.7-0.5-3.1-1.6-4.1c-1-1-2.9-1.6-5.4-1.6c-1.7,0-3.4,0.1-5.1,0.4
			c-1.7,0.2-3.1,0.6-4.4,1.1l-1.3-8.2c0.6-0.2,1.3-0.4,2.2-0.6c0.9-0.2,1.8-0.4,2.9-0.5c1-0.2,2.1-0.3,3.3-0.4
			C209.4,41.1,210.6,41.1,211.8,41.1z M212.6,70.7c1,0,1.9,0,2.9-0.1c0.9,0,1.6-0.1,2.2-0.2v-7.7c-0.4-0.1-1-0.2-1.8-0.3
			c-0.8-0.1-1.6-0.1-2.2-0.1c-1,0-1.8,0.1-2.7,0.2c-0.8,0.1-1.6,0.3-2.2,0.6c-0.6,0.3-1.1,0.7-1.5,1.3c-0.4,0.5-0.5,1.2-0.5,2
			c0,1.6,0.5,2.7,1.6,3.3C209.2,70.4,210.7,70.7,212.6,70.7z"/>
		<path class="st2" d="M250.8,78.5c-2.9,0-5.3-0.4-7.2-1c-1.8-0.6-3.3-1.4-4.4-2.5c-1.1-1.1-1.8-2.4-2.2-3.9
			c-0.4-1.5-0.6-3.2-0.6-5.1V26.7l10.1-1.6v39c0,0.9,0.1,1.7,0.2,2.4c0.1,0.7,0.4,1.3,0.8,1.8c0.4,0.5,0.9,0.9,1.7,1.2
			c0.7,0.3,1.7,0.5,2.9,0.6L250.8,78.5z"/>
		<path class="st2" d="M271.9,41.1c3,0,5.5,0.3,7.5,1c2,0.7,3.6,1.7,4.8,2.9c1.2,1.3,2.1,2.8,2.6,4.6c0.5,1.8,0.7,3.8,0.7,6.1v21.1
			c-1.5,0.3-3.5,0.7-6.1,1.1c-2.6,0.4-5.7,0.6-9.4,0.6c-2.3,0-4.4-0.2-6.3-0.6c-1.9-0.4-3.5-1.1-4.9-2c-1.4-0.9-2.4-2.1-3.1-3.6
			c-0.7-1.5-1.1-3.3-1.1-5.5c0-2.1,0.4-3.9,1.3-5.3c0.8-1.5,2-2.6,3.4-3.5c1.4-0.9,3-1.5,4.8-1.9c1.8-0.4,3.7-0.6,5.6-0.6
			c1.3,0,2.5,0.1,3.5,0.2c1,0.1,1.8,0.3,2.5,0.4v-1c0-1.7-0.5-3.1-1.6-4.1c-1-1-2.9-1.6-5.4-1.6c-1.7,0-3.4,0.1-5.1,0.4
			c-1.7,0.2-3.1,0.6-4.4,1.1l-1.3-8.2c0.6-0.2,1.3-0.4,2.2-0.6c0.9-0.2,1.8-0.4,2.9-0.5c1-0.2,2.1-0.3,3.3-0.4
			C269.5,41.1,270.7,41.1,271.9,41.1z M272.7,70.7c1,0,1.9,0,2.9-0.1c0.9,0,1.6-0.1,2.2-0.2v-7.7c-0.4-0.1-1-0.2-1.8-0.3
			c-0.8-0.1-1.6-0.1-2.2-0.1c-1,0-1.8,0.1-2.7,0.2c-0.8,0.1-1.6,0.3-2.2,0.6c-0.6,0.3-1.1,0.7-1.5,1.3c-0.4,0.5-0.5,1.2-0.5,2
			c0,1.6,0.5,2.7,1.6,3.3C269.4,70.4,270.8,70.7,272.7,70.7z"/>
		<path class="st2" d="M296.7,43.3c1.7-0.5,3.9-1,6.7-1.4c2.7-0.4,5.6-0.6,8.6-0.6c3,0,5.6,0.4,7.6,1.2c2,0.8,3.6,1.9,4.8,3.4
			c1.2,1.5,2,3.2,2.5,5.2c0.5,2,0.7,4.2,0.7,6.7v20.2h-10.1v-19c0-3.3-0.4-5.6-1.3-6.9c-0.9-1.4-2.5-2-4.8-2c-0.7,0-1.5,0-2.3,0.1
			c-0.8,0.1-1.5,0.1-2.2,0.2v27.6h-10.1V43.3z"/>
	</g>
</g>
</svg>
