<?xml version="1.0" encoding="utf-8"?>
<!-- Generator: Adobe Illustrator 23.0.3, SVG Export Plug-In . SVG Version: 6.00 Build 0)  -->
<svg version="1.1" id="Layer_1" xmlns="http://www.w3.org/2000/svg" xmlns:xlink="http://www.w3.org/1999/xlink" x="0px" y="0px"
	 viewBox="0 0 220 67" style="enable-background:new 0 0 220 67;" xml:space="preserve">
<style type="text/css">
	.st0{fill:#FF488E;}
	.st1{fill:#FFFFFF;}
	.st2{fill:#464D56;}
	.st3{fill-rule:evenodd;clip-rule:evenodd;fill:#FF488E;}
</style>
<path class="st0" d="M186.5,67h-153C15,67,0,52,0,33.5v0C0,15,15,0,33.5,0l153,0C205,0,220,15,220,33.5v0C220,52,205,67,186.5,67z"
	/>
<title>CTA</title>
<desc>Created with Sketch.</desc>
<g transform="translate(131.000000, 15.000000)">
</g>
<g>
	<g id="Group-2" transform="translate(67.140003, 0.180000)">
		<path class="st1" d="M119,24.2c0.3,0.3,0.4,0.7,0.4,1.1c0,0.5-0.1,0.8-0.4,1.1c-0.3,0.3-0.6,0.5-1,0.5s-0.7-0.1-1-0.5
			c-0.3-0.3-0.4-0.7-0.4-1.1c0-0.4,0.1-0.8,0.4-1.1c0.3-0.3,0.6-0.4,1-0.4S118.7,24,119,24.2z"/>
		<path class="st1" d="M120.3,18.6h-15.8c-2,0-3.6,1.6-3.6,3.6v6.4c0,2,1.6,3.6,3.6,3.6h15.8c2,0,3.6-1.6,3.6-3.6v-6.4
			C123.9,20.2,122.3,18.6,120.3,18.6z M109.7,25.8c-0.3,0.4-0.6,0.7-1.1,0.9c-0.5,0.2-1.1,0.3-1.6,0.3h-1.4v2H104v-7.1h3.1
			c0.5,0,1.1,0.1,1.6,0.3c0.4,0.2,0.8,0.5,1.1,0.9c0.3,0.5,0.4,0.9,0.4,1.4C110.1,24.9,110,25.4,109.7,25.8L109.7,25.8z M114.6,24.1
			h-0.4c-0.4,0-0.8,0.1-1.1,0.4c-0.3,0.4-0.5,0.7-0.4,1.2v2.5h-1.6v-5.5h1.5v0.7c0.2-0.3,0.5-0.5,0.7-0.6c0.4-0.2,0.7-0.2,1.1-0.2
			L114.6,24.1L114.6,24.1z M120.6,26.8c-0.3,0.5-0.6,0.8-1.1,1c-0.5,0.3-1,0.4-1.5,0.4s-1.1-0.1-1.5-0.4c-0.4-0.3-0.8-0.5-1.1-1
			c-0.5-0.9-0.5-2,0-2.9c0.3-0.5,0.6-0.8,1.1-1c0.5-0.3,1-0.4,1.5-0.4s1.1,0.1,1.5,0.4c0.4,0.3,0.8,0.5,1.1,1
			C121.1,24.8,121.1,25.9,120.6,26.8L120.6,26.8z M106.9,23.2h-1.3v2.5h1.3c0.4,0,0.8-0.1,1.1-0.3c0.3-0.3,0.4-0.5,0.4-0.9
			s-0.1-0.7-0.4-0.9C107.7,23.3,107.4,23.1,106.9,23.2z"/>
	</g>
	<g>
		<path class="st2" d="M77.9,24.5v17.1h-4.6h-1.1c-2,0-3.6-1.6-3.6-3.6V23.3c0-2.4,1.5-4.3,3.5-4.5c0.2,0,0.2,0,0.3,0h0.2
			c0.3,0,0.5,0,0.6,0h0.2c1.2,0.2,2.3,0.7,3.1,1.7C77.5,21.6,77.9,23,77.9,24.5z"/>
		<path class="st1" d="M98.6,24.6v23.7c0,0.2-0.1,0.5-0.3,0.6l-1.2,1.2c-0.3,0.3-0.9,0.3-1.3,0L95,49.3c-0.3-0.3-0.9-0.3-1.3,0
			l-0.9,0.8c-0.3,0.3-0.9,0.3-1.3,0l-0.8-0.8c-0.4-0.4-0.9-0.3-1.3,0l-0.9,0.9c-0.3,0.4-0.9,0.4-1.3,0l-0.8-0.8
			c-0.3-0.3-0.9-0.3-1.3,0l-0.9,0.8c-0.3,0.3-0.9,0.3-1.3,0l-0.9-0.8c-0.3-0.3-0.9-0.3-1.3,0l-0.9,0.8c-0.3,0.3-0.9,0.3-1.3,0
			l-1.2-1.2c-0.2-0.2-0.3-0.4-0.3-0.6V24.6c0-0.7-0.4-2.4-1.8-4.2c-0.9-1.2-2.2-1.5-3-1.6h-0.6c0,0,0.2,0,0.6,0h20
			C95.9,18.8,98.6,21.4,98.6,24.6z"/>
		<path class="st3" d="M93.9,26.8c0,0.2-0.2,0.4-0.4,0.4h-8.4c-0.2,0-0.4-0.2-0.4-0.4c0-0.2,0.2-0.4,0.4-0.4h8.4
			C93.7,26.4,93.9,26.6,93.9,26.8z"/>
		<path class="st3" d="M93.9,31c0,0.2-0.2,0.4-0.4,0.4h-8.4c-0.2,0-0.4-0.2-0.4-0.4c0-0.2,0.2-0.4,0.4-0.4h8.4
			C93.7,30.6,93.9,30.8,93.9,31z"/>
		<path class="st3" d="M83,34.8c0,0.5-0.4,0.8-0.8,0.8s-0.8-0.4-0.8-0.8c0-0.5,0.4-0.8,0.8-0.8S83,34.3,83,34.8z"/>
		<path class="st3" d="M83,30.6c0,0.5-0.4,0.8-0.8,0.8s-0.8-0.4-0.8-0.8c0-0.5,0.4-0.8,0.8-0.8S83,30.1,83,30.6z"/>
		<path class="st3" d="M83,26.4c0,0.5-0.4,0.8-0.8,0.8s-0.8-0.4-0.8-0.8c0-0.5,0.4-0.8,0.8-0.8S83,25.9,83,26.4z"/>
		<path class="st3" d="M83,39c0,0.5-0.4,0.8-0.8,0.8s-0.8-0.4-0.8-0.8s0.4-0.8,0.8-0.8S83,38.5,83,39z"/>
		<path class="st3" d="M93.9,35.2c0,0.2-0.2,0.4-0.4,0.4h-8.4c-0.2,0-0.4-0.2-0.4-0.4c0-0.2,0.2-0.4,0.4-0.4h8.4
			C93.7,34.8,93.9,35,93.9,35.2z"/>
		<path class="st3" d="M93.9,39.4c0,0.2-0.2,0.4-0.4,0.4h-8.4c-0.2,0-0.4-0.2-0.4-0.4c0-0.2,0.2-0.4,0.4-0.4h8.4
			C93.7,39,93.9,39.2,93.9,39.4z"/>
	</g>
	<g>
		<g>
			<path class="st1" d="M113.6,42.2c-2.1,0-3.7-0.6-4.8-1.7c-1.1-1.2-1.6-2.8-1.6-4.9c0-1.1,0.2-2,0.5-2.8c0.3-0.8,0.8-1.5,1.4-2.1
				c0.6-0.6,1.3-1,2.1-1.3c0.8-0.3,1.7-0.4,2.6-0.4c0.5,0,1,0,1.5,0.1c0.4,0.1,0.8,0.2,1.2,0.3c0.3,0.1,0.6,0.2,0.8,0.3
				c0.2,0.1,0.4,0.2,0.5,0.3l-0.8,2.3c-0.4-0.2-0.9-0.4-1.4-0.5c-0.5-0.1-1.1-0.2-1.8-0.2c-0.4,0-0.9,0.1-1.3,0.2
				c-0.4,0.1-0.8,0.4-1.1,0.7c-0.3,0.3-0.6,0.7-0.8,1.3c-0.2,0.5-0.3,1.1-0.3,1.9c0,0.6,0.1,1.1,0.2,1.7c0.1,0.5,0.3,1,0.6,1.3
				c0.3,0.4,0.7,0.7,1.1,0.9c0.5,0.2,1,0.3,1.7,0.3c0.4,0,0.8,0,1.1-0.1c0.3,0,0.6-0.1,0.9-0.2c0.3-0.1,0.5-0.1,0.7-0.2
				c0.2-0.1,0.4-0.2,0.5-0.2l0.8,2.3c-0.4,0.2-1,0.5-1.7,0.7C115.4,42.1,114.6,42.2,113.6,42.2z"/>
			<path class="st1" d="M119.5,41.9V28l2.7-0.4v4.7c0.2-0.1,0.4-0.1,0.7-0.2c0.3-0.1,0.6-0.1,0.8-0.1c0.8,0,1.4,0.1,2,0.3
				c0.5,0.2,0.9,0.5,1.3,0.9c0.3,0.4,0.5,0.9,0.7,1.4c0.1,0.5,0.2,1.1,0.2,1.8v5.5h-2.8v-5.1c0-0.9-0.1-1.5-0.3-1.9
				c-0.2-0.4-0.6-0.6-1.3-0.6c-0.2,0-0.5,0-0.7,0.1c-0.2,0-0.4,0.1-0.6,0.1v7.4H119.5z"/>
			<path class="st1" d="M133.9,31.9c0.8,0,1.5,0.1,2,0.3c0.5,0.2,1,0.4,1.3,0.8c0.3,0.3,0.6,0.8,0.7,1.3c0.1,0.5,0.2,1,0.2,1.6v5.7
				c-0.4,0.1-0.9,0.2-1.6,0.3c-0.7,0.1-1.6,0.2-2.5,0.2c-0.6,0-1.2-0.1-1.7-0.2c-0.5-0.1-1-0.3-1.3-0.5c-0.4-0.3-0.7-0.6-0.8-1
				c-0.2-0.4-0.3-0.9-0.3-1.5c0-0.6,0.1-1,0.3-1.4c0.2-0.4,0.5-0.7,0.9-0.9c0.4-0.2,0.8-0.4,1.3-0.5c0.5-0.1,1-0.2,1.5-0.2
				c0.4,0,0.7,0,1,0c0.3,0,0.5,0.1,0.7,0.1v-0.3c0-0.5-0.1-0.8-0.4-1.1c-0.3-0.3-0.8-0.4-1.5-0.4c-0.5,0-0.9,0-1.4,0.1
				c-0.5,0.1-0.8,0.2-1.2,0.3l-0.4-2.2c0.2,0,0.4-0.1,0.6-0.2c0.2-0.1,0.5-0.1,0.8-0.1c0.3,0,0.6-0.1,0.9-0.1
				C133.2,31.9,133.6,31.9,133.9,31.9z M134.1,40c0.3,0,0.5,0,0.8,0c0.2,0,0.4,0,0.6-0.1v-2.1c-0.1,0-0.3,0-0.5-0.1
				c-0.2,0-0.4,0-0.6,0c-0.3,0-0.5,0-0.7,0c-0.2,0-0.4,0.1-0.6,0.2c-0.2,0.1-0.3,0.2-0.4,0.4c-0.1,0.1-0.1,0.3-0.1,0.6
				c0,0.4,0.1,0.7,0.4,0.9C133.2,39.9,133.6,40,134.1,40z"/>
			<path class="st1" d="M144.5,42.1c-0.8,0-1.4-0.1-1.9-0.3c-0.5-0.2-0.9-0.4-1.2-0.7c-0.3-0.3-0.5-0.6-0.6-1.1
				c-0.1-0.4-0.2-0.9-0.2-1.4V28l2.7-0.4v10.6c0,0.2,0,0.5,0.1,0.7c0,0.2,0.1,0.4,0.2,0.5c0.1,0.1,0.3,0.2,0.5,0.3
				c0.2,0.1,0.5,0.1,0.8,0.2L144.5,42.1z"/>
			<path class="st1" d="M150.2,31.9c0.8,0,1.5,0.1,2,0.3s1,0.4,1.3,0.8c0.3,0.3,0.6,0.8,0.7,1.3c0.1,0.5,0.2,1,0.2,1.6v5.7
				c-0.4,0.1-0.9,0.2-1.6,0.3c-0.7,0.1-1.6,0.2-2.5,0.2c-0.6,0-1.2-0.1-1.7-0.2c-0.5-0.1-1-0.3-1.3-0.5c-0.4-0.3-0.7-0.6-0.8-1
				c-0.2-0.4-0.3-0.9-0.3-1.5c0-0.6,0.1-1,0.3-1.4c0.2-0.4,0.5-0.7,0.9-0.9c0.4-0.2,0.8-0.4,1.3-0.5c0.5-0.1,1-0.2,1.5-0.2
				c0.4,0,0.7,0,1,0c0.3,0,0.5,0.1,0.7,0.1v-0.3c0-0.5-0.1-0.8-0.4-1.1c-0.3-0.3-0.8-0.4-1.5-0.4c-0.5,0-0.9,0-1.4,0.1
				c-0.5,0.1-0.8,0.2-1.2,0.3l-0.4-2.2c0.2,0,0.4-0.1,0.6-0.2c0.2-0.1,0.5-0.1,0.8-0.1c0.3,0,0.6-0.1,0.9-0.1
				C149.6,31.9,149.9,31.9,150.2,31.9z M150.4,40c0.3,0,0.5,0,0.8,0c0.2,0,0.4,0,0.6-0.1v-2.1c-0.1,0-0.3,0-0.5-0.1
				c-0.2,0-0.4,0-0.6,0c-0.3,0-0.5,0-0.7,0c-0.2,0-0.4,0.1-0.6,0.2c-0.2,0.1-0.3,0.2-0.4,0.4c-0.1,0.1-0.1,0.3-0.1,0.6
				c0,0.4,0.1,0.7,0.4,0.9C149.5,39.9,149.9,40,150.4,40z"/>
			<path class="st1" d="M156.9,32.5c0.5-0.1,1.1-0.3,1.8-0.4c0.7-0.1,1.5-0.2,2.3-0.2c0.8,0,1.5,0.1,2.1,0.3c0.5,0.2,1,0.5,1.3,0.9
				c0.3,0.4,0.5,0.9,0.7,1.4c0.1,0.5,0.2,1.1,0.2,1.8v5.5h-2.7v-5.1c0-0.9-0.1-1.5-0.4-1.9c-0.2-0.4-0.7-0.6-1.3-0.6
				c-0.2,0-0.4,0-0.6,0c-0.2,0-0.4,0-0.6,0.1v7.5h-2.7V32.5z"/>
		</g>
	</g>
	<g>
		<path class="st1" d="M36.3,30.3c-1.5,0-2.5,0.4-3.2,1.2c-0.7,0.8-1,1.9-1,3.3c0,0.7,0.1,1.3,0.2,1.9c0.2,0.6,0.4,1,0.7,1.4
			c0.3,0.4,0.7,0.7,1.2,0.9c0.5,0.2,1,0.3,1.7,0.3c0.3,0,0.6,0,0.9,0c0.2,0,0.5,0,0.7-0.1v-4.9h3.1v6.9c-0.4,0.1-1,0.3-1.8,0.5
			c-0.8,0.2-1.9,0.3-3.1,0.3c-1,0-2-0.2-2.9-0.5c-0.9-0.3-1.6-0.8-2.2-1.4c-0.6-0.6-1.1-1.4-1.4-2.3c-0.3-0.9-0.5-1.9-0.5-3.1
			c0-1.2,0.2-2.2,0.5-3.1c0.4-0.9,0.9-1.7,1.5-2.3c0.6-0.6,1.4-1.1,2.2-1.4c0.9-0.3,1.8-0.5,2.7-0.5c0.7,0,1.3,0,1.8,0.1
			c0.5,0.1,1,0.2,1.4,0.3c0.4,0.1,0.7,0.2,0.9,0.4c0.2,0.1,0.4,0.2,0.5,0.3l-0.9,2.5c-0.4-0.2-0.9-0.4-1.5-0.6
			C37.6,30.4,37,30.3,36.3,30.3z"/>
		<path class="st1" d="M43,36.6c0-0.9,0.1-1.8,0.4-2.5c0.3-0.7,0.7-1.3,1.1-1.8c0.5-0.5,1-0.8,1.6-1.1c0.6-0.2,1.2-0.4,1.9-0.4
			c1.5,0,2.7,0.5,3.6,1.4c0.9,0.9,1.3,2.3,1.3,4.1c0,0.2,0,0.4,0,0.6c0,0.2,0,0.4,0,0.6h-6.8c0.1,0.6,0.4,1.1,0.9,1.5
			c0.5,0.4,1.2,0.5,2.1,0.5c0.6,0,1.1-0.1,1.6-0.2c0.5-0.1,1-0.2,1.3-0.4l0.4,2.4c-0.2,0.1-0.4,0.2-0.6,0.2
			c-0.3,0.1-0.6,0.2-0.9,0.2c-0.3,0.1-0.7,0.1-1.1,0.2c-0.4,0-0.8,0.1-1.1,0.1c-1,0-1.8-0.1-2.5-0.4c-0.7-0.3-1.3-0.7-1.8-1.2
			c-0.5-0.5-0.8-1.1-1-1.7C43.1,38.2,43,37.4,43,36.6z M50,35.5c0-0.3-0.1-0.5-0.1-0.7c-0.1-0.2-0.2-0.5-0.3-0.6
			c-0.2-0.2-0.3-0.3-0.6-0.5c-0.2-0.1-0.5-0.2-0.9-0.2c-0.3,0-0.6,0.1-0.9,0.2c-0.2,0.1-0.4,0.3-0.6,0.5c-0.2,0.2-0.3,0.4-0.4,0.7
			c-0.1,0.2-0.2,0.5-0.2,0.8H50z"/>
		<path class="st1" d="M55.2,28.6l3-0.5v3.1h3.6v2.5h-3.6v3.7c0,0.6,0.1,1.1,0.3,1.5c0.2,0.4,0.7,0.6,1.3,0.6c0.3,0,0.7,0,1-0.1
			c0.3-0.1,0.7-0.1,0.9-0.3l0.4,2.3c-0.4,0.1-0.8,0.3-1.2,0.4s-1,0.2-1.6,0.2c-0.8,0-1.5-0.1-2-0.3c-0.5-0.2-1-0.5-1.3-0.9
			c-0.3-0.4-0.5-0.9-0.7-1.4c-0.1-0.6-0.2-1.2-0.2-1.9V28.6z"/>
	</g>
</g>
</svg>
