<svg width="168" height="55" viewBox="0 0 168 55" fill="none" xmlns="http://www.w3.org/2000/svg">
<rect width="168" height="55" fill="white"/>
<path d="M19.473 11.9119V38.6478H12.2365H10.5665C7.50494 38.6478 5 36.1413 5 33.0778V9.96246C5 6.20273 7.36578 3.2785 10.5665 3C10.8449 3 10.8449 3 10.984 3H11.2624C11.6799 3 11.9582 3 12.2365 3H12.5148C14.324 3.2785 16.1331 4.11399 17.2464 5.64573C18.7772 7.31672 19.473 9.40546 19.473 11.9119Z" fill="url(#paint0_linear)"/>
<path d="M51.759 11.9119V48.9522C51.759 49.37 51.6198 49.6485 51.3415 49.927L49.3932 51.7372C48.8365 52.2942 48.0015 52.2942 47.4449 51.7372L46.0533 50.484C45.4966 49.927 44.6616 49.927 44.105 50.484L42.7133 51.7372C42.1567 52.2942 41.3217 52.2942 40.765 51.7372L39.5126 50.484C38.9559 49.927 38.1209 49.927 37.5643 50.484L36.1726 51.8764C35.616 52.4334 34.781 52.4334 34.2244 51.8764L32.9719 50.6232C32.4152 50.0662 31.5802 50.0662 31.0236 50.6232L29.632 51.8764C29.0753 52.4334 28.2403 52.4334 27.6837 51.8764L26.292 50.6232C25.7354 50.0662 24.9004 50.0662 24.3437 50.6232L22.9521 51.8764C22.3954 52.4334 21.5605 52.4334 21.0038 51.8764L19.1947 50.3447C18.9164 50.0662 18.7772 49.7877 18.7772 49.37V11.9119C18.7772 10.798 18.0814 8.29147 15.9939 5.36724C14.7415 3.557 12.654 3.13925 11.4015 3H10.5665C10.5665 3 10.984 3 11.4015 3H42.5742C47.5841 3 51.759 7.03823 51.759 11.9119Z" fill="#488EFF"/>
<path fill-rule="evenodd" clip-rule="evenodd" d="M44.3833 15.5324C44.3833 15.9502 44.105 16.2287 43.6875 16.2287H30.6061C30.1886 16.2287 29.9103 15.9502 29.9103 15.5324C29.9103 15.1147 30.1886 14.8362 30.6061 14.8362H43.6875C44.105 14.8362 44.3833 15.1147 44.3833 15.5324Z" fill="white"/>
<path fill-rule="evenodd" clip-rule="evenodd" d="M44.3833 22.0772C44.3833 22.4949 44.105 22.7734 43.6875 22.7734H30.6061C30.1886 22.7734 29.9103 22.4949 29.9103 22.0772C29.9103 21.6594 30.1886 21.3809 30.6061 21.3809H43.6875C44.105 21.3809 44.3833 21.6594 44.3833 22.0772Z" fill="white"/>
<path fill-rule="evenodd" clip-rule="evenodd" d="M27.2662 27.9256C27.2662 28.6219 26.7095 29.1789 26.0137 29.1789C25.3179 29.1789 24.7612 28.6219 24.7612 27.9256C24.7612 27.2294 25.3179 26.6724 26.0137 26.6724C26.7095 26.6724 27.2662 27.2294 27.2662 27.9256Z" fill="white"/>
<path fill-rule="evenodd" clip-rule="evenodd" d="M27.2662 21.3809C27.2662 22.0771 26.7095 22.6341 26.0137 22.6341C25.3179 22.6341 24.7612 22.0771 24.7612 21.3809C24.7612 20.6846 25.3179 20.1276 26.0137 20.1276C26.7095 20.1276 27.2662 20.6846 27.2662 21.3809Z" fill="white"/>
<path fill-rule="evenodd" clip-rule="evenodd" d="M27.2662 14.8362C27.2662 15.5325 26.7095 16.0895 26.0137 16.0895C25.3179 16.0895 24.7612 15.5325 24.7612 14.8362C24.7612 14.14 25.3179 13.583 26.0137 13.583C26.7095 13.583 27.2662 14.14 27.2662 14.8362Z" fill="white"/>
<path fill-rule="evenodd" clip-rule="evenodd" d="M27.2662 34.6096C27.2662 35.3058 26.7095 35.8628 26.0137 35.8628C25.3179 35.8628 24.7612 35.3058 24.7612 34.6096C24.7612 33.9133 25.3179 33.3563 26.0137 33.3563C26.7095 33.2171 27.2662 33.7741 27.2662 34.6096Z" fill="white"/>
<path fill-rule="evenodd" clip-rule="evenodd" d="M44.3833 28.6218C44.3833 29.0396 44.105 29.3181 43.6875 29.3181H30.6061C30.1886 29.3181 29.9103 29.0396 29.9103 28.6218C29.9103 28.2041 30.1886 27.9256 30.6061 27.9256H43.6875C44.105 27.9256 44.3833 28.2041 44.3833 28.6218Z" fill="white"/>
<path fill-rule="evenodd" clip-rule="evenodd" d="M44.3833 35.1666C44.3833 35.5843 44.105 35.8628 43.6875 35.8628H30.6061C30.1886 35.8628 29.9103 35.5843 29.9103 35.1666C29.9103 34.7488 30.1886 34.4703 30.6061 34.4703H43.6875C44.105 34.6096 44.3833 34.8881 44.3833 35.1666Z" fill="white"/>
<path d="M69.4373 32.8462C65.7106 32.8462 63.0119 31.8175 60.9557 29.7601C59.0281 27.7027 58 24.7452 58 21.0161C58 19.0873 58.257 17.4156 58.8996 16.0012C59.5421 14.5867 60.3132 13.3008 61.3412 12.2721C62.3693 11.2434 63.5259 10.4719 64.9395 9.9575C66.3531 9.44315 67.8952 9.18597 69.5659 9.18597C70.4654 9.18597 71.365 9.31456 72.136 9.44315C72.9071 9.57174 73.5496 9.70033 74.1922 9.9575C74.8347 10.0861 75.2203 10.3433 75.6058 10.4719C75.9913 10.729 76.2483 10.8576 76.5054 10.9862L75.0918 15.101C74.4492 14.7153 73.5496 14.4581 72.6501 14.2009C71.7505 13.9437 70.7224 13.8152 69.4373 13.8152C68.6663 13.8152 67.8952 13.9437 67.1242 14.2009C66.3531 14.4581 65.7106 14.8439 65.068 15.4868C64.554 16.0012 64.0399 16.7727 63.6544 17.6728C63.2689 18.5729 63.1404 19.7302 63.1404 21.0161C63.1404 22.0448 63.2689 23.0735 63.5259 23.9736C63.7829 24.8738 64.1685 25.6453 64.6825 26.2882C65.1965 26.9312 65.8391 27.4455 66.7386 27.8313C67.5097 28.2171 68.5378 28.3456 69.6944 28.3456C70.4654 28.3456 71.108 28.3456 71.7505 28.2171C72.3931 28.0885 72.9071 28.0885 73.2926 27.9599C73.8067 27.8313 74.1922 27.7027 74.4492 27.5741C74.8347 27.4455 75.0918 27.3169 75.3488 27.1884L76.7624 31.3032C75.9913 31.6889 75.0918 32.0747 73.6782 32.4605C72.6501 32.7177 71.108 32.8462 69.4373 32.8462Z" fill="#212428"/>
<path d="M79.9751 32.4605V7.77153L84.8584 7V15.2297C85.244 15.1011 85.6295 14.9725 86.1435 14.9725C86.6576 14.9725 87.0431 14.8439 87.5571 14.8439C88.9707 14.8439 90.1273 14.9725 91.0269 15.3582C91.9264 15.744 92.6975 16.2584 93.2115 17.0299C93.7256 17.6728 94.1111 18.573 94.3681 19.4731C94.6251 20.3732 94.7537 21.5305 94.7537 22.6878V32.4605H89.8703V23.3307C89.8703 21.7877 89.6133 20.6304 89.2277 19.9874C88.8422 19.3445 88.0712 18.9587 87.0431 18.9587C86.6576 18.9587 86.1435 18.9587 85.758 19.0873C85.3725 19.2159 84.9869 19.2159 84.7299 19.3445V32.4605H79.9751Z" fill="#212428"/>
<path d="M105.42 14.7154C106.834 14.7154 108.119 14.844 109.018 15.2298C109.918 15.6155 110.689 16.0013 111.331 16.6443C111.974 17.2872 112.36 18.0587 112.617 18.8303C112.874 19.7304 113.002 20.6305 113.002 21.7878V31.9463C112.36 32.0749 111.331 32.332 110.046 32.4606C108.761 32.5892 107.348 32.7178 105.549 32.7178C104.392 32.7178 103.492 32.5892 102.464 32.4606C101.436 32.332 100.794 31.9463 100.151 31.4319C99.5086 31.0462 98.9946 30.4032 98.609 29.6317C98.2235 28.8602 98.095 28.0886 98.095 26.9313C98.095 25.9026 98.352 25.1311 98.7375 24.3596C99.1231 23.588 99.6371 23.0737 100.408 22.6879C101.051 22.3021 101.822 21.9164 102.721 21.7878C103.621 21.6592 104.52 21.5306 105.42 21.5306C106.063 21.5306 106.577 21.5306 107.091 21.6592C107.605 21.6592 107.99 21.7878 108.247 21.9164V21.402C108.247 20.6305 107.99 19.859 107.476 19.3446C106.962 18.8303 106.063 18.5731 104.906 18.5731C104.135 18.5731 103.235 18.5731 102.464 18.7017C101.693 18.8303 100.922 18.9588 100.408 19.216L99.7656 15.2298C100.023 15.1012 100.408 15.1012 100.794 14.9726C101.179 14.844 101.693 14.844 102.207 14.7154C102.721 14.5868 103.235 14.5868 103.749 14.4583C104.263 14.7154 104.777 14.7154 105.42 14.7154ZM105.806 28.9887C106.32 28.9887 106.705 28.9887 107.219 28.9887C107.733 28.9887 107.99 28.9887 108.247 28.8602V25.1311C107.99 25.1311 107.733 25.0025 107.348 25.0025C106.962 25.0025 106.577 24.8739 106.32 24.8739C105.806 24.8739 105.42 24.8739 105.035 25.0025C104.649 25.0025 104.263 25.1311 104.006 25.2597C103.749 25.3883 103.492 25.6454 103.235 25.9026C103.107 26.1598 102.978 26.5456 102.978 26.9313C102.978 27.7029 103.235 28.2172 103.749 28.4744C104.135 28.8602 104.906 28.9887 105.806 28.9887Z" fill="#212428"/>
<path d="M124.182 32.7177C122.769 32.7177 121.612 32.5891 120.713 32.2033C119.813 31.9462 119.17 31.5604 118.656 31.046C118.142 30.5317 117.757 29.8887 117.628 29.1172C117.5 28.3457 117.371 27.5742 117.371 26.674V7.77153L122.255 7V25.7739C122.255 26.1597 122.255 26.5454 122.383 26.9312C122.512 27.317 122.512 27.5742 122.769 27.8313C122.897 28.0885 123.283 28.2171 123.54 28.4743C123.925 28.6029 124.311 28.7314 124.953 28.7314L124.182 32.7177Z" fill="#212428"/>
<path d="M134.335 14.7154C135.748 14.7154 137.033 14.844 137.933 15.2298C138.832 15.6155 139.603 16.0013 140.246 16.6443C140.889 17.2872 141.274 18.0587 141.531 18.8303C141.788 19.7304 141.917 20.6305 141.917 21.7878V31.9463C141.274 32.0749 140.246 32.332 138.961 32.4606C137.676 32.5892 136.262 32.7178 134.463 32.7178C133.306 32.7178 132.407 32.5892 131.379 32.4606C130.351 32.332 129.708 31.9463 129.066 31.4319C128.423 31.0462 127.909 30.4032 127.524 29.6317C127.138 28.8602 127.01 28.0886 127.01 26.9313C127.01 25.9026 127.267 25.1311 127.652 24.3596C128.038 23.588 128.552 23.0737 129.323 22.6879C129.965 22.3021 130.736 21.9164 131.636 21.7878C132.535 21.6592 133.435 21.5306 134.335 21.5306C134.977 21.5306 135.491 21.5306 136.005 21.6592C136.519 21.6592 136.905 21.7878 137.162 21.9164V21.402C137.162 20.6305 136.905 19.859 136.391 19.3446C135.877 18.8303 134.977 18.5731 133.821 18.5731C133.049 18.5731 132.15 18.5731 131.379 18.7017C130.608 18.8303 129.837 18.9588 129.323 19.216L128.68 15.2298C128.937 15.1012 129.323 15.1012 129.708 14.9726C130.094 14.844 130.608 14.844 131.122 14.7154C131.636 14.5868 132.15 14.5868 132.664 14.4583C133.178 14.7154 133.692 14.7154 134.335 14.7154ZM134.72 28.9887C135.234 28.9887 135.62 28.9887 136.134 28.9887C136.648 28.9887 136.905 28.9887 137.162 28.8602V25.1311C136.905 25.1311 136.648 25.0025 136.262 25.0025C135.877 25.0025 135.491 24.8739 135.234 24.8739C134.72 24.8739 134.335 24.8739 133.949 25.0025C133.564 25.0025 133.178 25.1311 132.921 25.2597C132.664 25.3883 132.407 25.6454 132.15 25.9026C132.021 26.1598 131.893 26.5456 131.893 26.9313C131.893 27.7029 132.15 28.2172 132.664 28.4744C133.049 28.8602 133.821 28.9887 134.72 28.9887Z" fill="#212428"/>
<path d="M146.157 15.7441C146.928 15.4869 148.085 15.2297 149.37 15.1011C150.655 14.9725 152.069 14.8439 153.482 14.8439C154.896 14.8439 156.181 14.9725 157.081 15.3583C158.109 15.7441 158.88 16.2584 159.394 17.0299C159.908 17.6729 160.422 18.573 160.55 19.4731C160.807 20.3732 160.936 21.5305 160.936 22.6878V32.4606H156.053V23.3308C156.053 21.7877 155.796 20.6304 155.41 19.9875C155.025 19.3445 154.254 18.9588 153.097 18.9588C152.711 18.9588 152.326 18.9588 151.94 18.9588C151.555 18.9588 151.169 19.0874 150.912 19.0874V32.332H146.157V15.7441Z" fill="#212428"/>
<path d="M60.43 39.7C61.306 39.7 61.978 39.868 62.446 40.204C62.92 40.534 63.157 41.029 63.157 41.689C63.157 42.049 63.091 42.358 62.959 42.616C62.833 42.868 62.647 43.075 62.401 43.237C62.161 43.393 61.867 43.507 61.519 43.579C61.171 43.651 60.778 43.687 60.34 43.687H59.647V46H58.774V39.853C59.02 39.793 59.293 39.754 59.593 39.736C59.899 39.712 60.178 39.7 60.43 39.7ZM60.502 40.465C60.13 40.465 59.845 40.474 59.647 40.492V42.94H60.304C60.604 42.94 60.874 42.922 61.114 42.886C61.354 42.844 61.555 42.778 61.717 42.688C61.885 42.592 62.014 42.463 62.104 42.301C62.194 42.139 62.239 41.932 62.239 41.68C62.239 41.44 62.191 41.242 62.095 41.086C62.005 40.93 61.879 40.807 61.717 40.717C61.561 40.621 61.378 40.555 61.168 40.519C60.958 40.483 60.736 40.465 60.502 40.465ZM69.3706 42.877C69.3706 43.417 69.2866 43.888 69.1186 44.29C68.9506 44.686 68.7136 45.016 68.4076 45.28C68.1016 45.538 67.7356 45.733 67.3096 45.865C66.8836 45.991 66.4156 46.054 65.9056 46.054C65.6536 46.054 65.3746 46.042 65.0686 46.018C64.7686 46 64.4956 45.961 64.2496 45.901V39.853C64.4956 39.793 64.7686 39.754 65.0686 39.736C65.3746 39.712 65.6536 39.7 65.9056 39.7C66.4156 39.7 66.8836 39.766 67.3096 39.898C67.7356 40.024 68.1016 40.219 68.4076 40.483C68.7136 40.741 68.9506 41.071 69.1186 41.473C69.2866 41.869 69.3706 42.337 69.3706 42.877ZM65.9776 45.289C66.8056 45.289 67.4236 45.079 67.8316 44.659C68.2396 44.233 68.4436 43.639 68.4436 42.877C68.4436 42.115 68.2396 41.524 67.8316 41.104C67.4236 40.678 66.8056 40.465 65.9776 40.465C65.7316 40.465 65.5396 40.468 65.4016 40.474C65.2696 40.48 65.1766 40.486 65.1226 40.492V45.262C65.1766 45.268 65.2696 45.274 65.4016 45.28C65.5396 45.286 65.7316 45.289 65.9776 45.289ZM70.6656 46V39.763H74.4276V40.51H71.5386V42.391H74.1036V43.129H71.5386V46H70.6656ZM77.5826 39.763H78.4556V46H77.5826V39.763ZM79.9456 41.455C80.1376 41.407 80.3926 41.356 80.7106 41.302C81.0286 41.248 81.3946 41.221 81.8086 41.221C82.1806 41.221 82.4896 41.275 82.7356 41.383C82.9816 41.485 83.1766 41.632 83.3206 41.824C83.4706 42.01 83.5756 42.235 83.6356 42.499C83.6956 42.763 83.7256 43.054 83.7256 43.372V46H82.8886V43.552C82.8886 43.264 82.8676 43.018 82.8256 42.814C82.7896 42.61 82.7266 42.445 82.6366 42.319C82.5466 42.193 82.4266 42.103 82.2766 42.049C82.1266 41.989 81.9406 41.959 81.7186 41.959C81.6286 41.959 81.5356 41.962 81.4396 41.968C81.3436 41.974 81.2506 41.983 81.1606 41.995C81.0766 42.001 80.9986 42.01 80.9266 42.022C80.8606 42.034 80.8126 42.043 80.7826 42.049V46H79.9456V41.455ZM88.6269 41.32C88.3929 42.196 88.1169 43.036 87.7989 43.84C87.4869 44.644 87.1839 45.364 86.8899 46H86.1339C85.8399 45.364 85.5339 44.644 85.2159 43.84C84.9039 43.036 84.6309 42.196 84.3969 41.32H85.2969C85.3689 41.614 85.4529 41.929 85.5489 42.265C85.6509 42.595 85.7559 42.925 85.8639 43.255C85.9779 43.579 86.0919 43.894 86.2059 44.2C86.3199 44.506 86.4279 44.779 86.5299 45.019C86.6319 44.779 86.7399 44.506 86.8539 44.2C86.9679 43.894 87.0789 43.579 87.1869 43.255C87.3009 42.925 87.4059 42.595 87.5019 42.265C87.6039 41.929 87.6909 41.614 87.7629 41.32H88.6269ZM93.4985 43.66C93.4985 44.032 93.4445 44.368 93.3365 44.668C93.2285 44.968 93.0755 45.226 92.8775 45.442C92.6855 45.658 92.4545 45.826 92.1845 45.946C91.9145 46.06 91.6205 46.117 91.3025 46.117C90.9845 46.117 90.6905 46.06 90.4205 45.946C90.1505 45.826 89.9165 45.658 89.7185 45.442C89.5265 45.226 89.3765 44.968 89.2685 44.668C89.1605 44.368 89.1065 44.032 89.1065 43.66C89.1065 43.294 89.1605 42.961 89.2685 42.661C89.3765 42.355 89.5265 42.094 89.7185 41.878C89.9165 41.662 90.1505 41.497 90.4205 41.383C90.6905 41.263 90.9845 41.203 91.3025 41.203C91.6205 41.203 91.9145 41.263 92.1845 41.383C92.4545 41.497 92.6855 41.662 92.8775 41.878C93.0755 42.094 93.2285 42.355 93.3365 42.661C93.4445 42.961 93.4985 43.294 93.4985 43.66ZM92.6255 43.66C92.6255 43.132 92.5055 42.715 92.2655 42.409C92.0315 42.097 91.7105 41.941 91.3025 41.941C90.8945 41.941 90.5705 42.097 90.3305 42.409C90.0965 42.715 89.9795 43.132 89.9795 43.66C89.9795 44.188 90.0965 44.608 90.3305 44.92C90.5705 45.226 90.8945 45.379 91.3025 45.379C91.7105 45.379 92.0315 45.226 92.2655 44.92C92.5055 44.608 92.6255 44.188 92.6255 43.66ZM95.5131 46H94.6761V41.32H95.5131V46ZM95.0901 40.474C94.9401 40.474 94.8111 40.426 94.7031 40.33C94.6011 40.228 94.5501 40.093 94.5501 39.925C94.5501 39.757 94.6011 39.625 94.7031 39.529C94.8111 39.427 94.9401 39.376 95.0901 39.376C95.2401 39.376 95.3661 39.427 95.4681 39.529C95.5761 39.625 95.6301 39.757 95.6301 39.925C95.6301 40.093 95.5761 40.228 95.4681 40.33C95.3661 40.426 95.2401 40.474 95.0901 40.474ZM98.9864 46.108C98.6084 46.108 98.2754 46.048 97.9874 45.928C97.7054 45.808 97.4654 45.64 97.2674 45.424C97.0754 45.208 96.9314 44.953 96.8354 44.659C96.7394 44.359 96.6914 44.029 96.6914 43.669C96.6914 43.309 96.7424 42.979 96.8444 42.679C96.9524 42.379 97.1024 42.121 97.2944 41.905C97.4864 41.683 97.7204 41.512 97.9964 41.392C98.2784 41.266 98.5904 41.203 98.9324 41.203C99.1424 41.203 99.3524 41.221 99.5624 41.257C99.7724 41.293 99.9734 41.35 100.165 41.428L99.9764 42.139C99.8504 42.079 99.7034 42.031 99.5354 41.995C99.3734 41.959 99.1994 41.941 99.0134 41.941C98.5454 41.941 98.1854 42.088 97.9334 42.382C97.6874 42.676 97.5644 43.105 97.5644 43.669C97.5644 43.921 97.5914 44.152 97.6454 44.362C97.7054 44.572 97.7954 44.752 97.9154 44.902C98.0414 45.052 98.2004 45.169 98.3924 45.253C98.5844 45.331 98.8184 45.37 99.0944 45.37C99.3164 45.37 99.5174 45.349 99.6974 45.307C99.8774 45.265 100.018 45.22 100.12 45.172L100.237 45.874C100.189 45.904 100.12 45.934 100.03 45.964C99.9404 45.988 99.8384 46.009 99.7244 46.027C99.6104 46.051 99.4874 46.069 99.3554 46.081C99.2294 46.099 99.1064 46.108 98.9864 46.108ZM100.875 43.669C100.875 43.255 100.935 42.895 101.055 42.589C101.175 42.277 101.334 42.019 101.532 41.815C101.73 41.611 101.958 41.458 102.216 41.356C102.474 41.254 102.738 41.203 103.008 41.203C103.638 41.203 104.121 41.401 104.457 41.797C104.793 42.187 104.961 42.784 104.961 43.588C104.961 43.624 104.961 43.672 104.961 43.732C104.961 43.786 104.958 43.837 104.952 43.885H101.748C101.784 44.371 101.925 44.74 102.171 44.992C102.417 45.244 102.801 45.37 103.323 45.37C103.617 45.37 103.863 45.346 104.061 45.298C104.265 45.244 104.418 45.193 104.52 45.145L104.637 45.847C104.535 45.901 104.355 45.958 104.097 46.018C103.845 46.078 103.557 46.108 103.233 46.108C102.825 46.108 102.471 46.048 102.171 45.928C101.877 45.802 101.634 45.631 101.442 45.415C101.25 45.199 101.106 44.944 101.01 44.65C100.92 44.35 100.875 44.023 100.875 43.669ZM104.088 43.21C104.094 42.832 103.998 42.523 103.8 42.283C103.608 42.037 103.341 41.914 102.999 41.914C102.807 41.914 102.636 41.953 102.486 42.031C102.342 42.103 102.219 42.199 102.117 42.319C102.015 42.439 101.934 42.577 101.874 42.733C101.82 42.889 101.784 43.048 101.766 43.21H104.088ZM108.39 38.953H109.173V47.665H108.39V38.953ZM114.553 39.7C115.429 39.7 116.101 39.868 116.569 40.204C117.043 40.534 117.28 41.029 117.28 41.689C117.28 42.049 117.214 42.358 117.082 42.616C116.956 42.868 116.77 43.075 116.524 43.237C116.284 43.393 115.99 43.507 115.642 43.579C115.294 43.651 114.901 43.687 114.463 43.687H113.77V46H112.897V39.853C113.143 39.793 113.416 39.754 113.716 39.736C114.022 39.712 114.301 39.7 114.553 39.7ZM114.625 40.465C114.253 40.465 113.968 40.474 113.77 40.492V42.94H114.427C114.727 42.94 114.997 42.922 115.237 42.886C115.477 42.844 115.678 42.778 115.84 42.688C116.008 42.592 116.137 42.463 116.227 42.301C116.317 42.139 116.362 41.932 116.362 41.68C116.362 41.44 116.314 41.242 116.218 41.086C116.128 40.93 116.002 40.807 115.84 40.717C115.684 40.621 115.501 40.555 115.291 40.519C115.081 40.483 114.859 40.465 114.625 40.465ZM119.736 45.397C119.934 45.397 120.108 45.394 120.258 45.388C120.414 45.376 120.543 45.358 120.645 45.334V43.939C120.585 43.909 120.486 43.885 120.348 43.867C120.216 43.843 120.054 43.831 119.862 43.831C119.736 43.831 119.601 43.84 119.457 43.858C119.319 43.876 119.19 43.915 119.07 43.975C118.956 44.029 118.86 44.107 118.782 44.209C118.704 44.305 118.665 44.434 118.665 44.596C118.665 44.896 118.761 45.106 118.953 45.226C119.145 45.34 119.406 45.397 119.736 45.397ZM119.664 41.203C120 41.203 120.282 41.248 120.51 41.338C120.744 41.422 120.93 41.545 121.068 41.707C121.212 41.863 121.314 42.052 121.374 42.274C121.434 42.49 121.464 42.73 121.464 42.994V45.919C121.392 45.931 121.29 45.949 121.158 45.973C121.032 45.991 120.888 46.009 120.726 46.027C120.564 46.045 120.387 46.06 120.195 46.072C120.009 46.09 119.823 46.099 119.637 46.099C119.373 46.099 119.13 46.072 118.908 46.018C118.686 45.964 118.494 45.88 118.332 45.766C118.17 45.646 118.044 45.49 117.954 45.298C117.864 45.106 117.819 44.875 117.819 44.605C117.819 44.347 117.87 44.125 117.972 43.939C118.08 43.753 118.224 43.603 118.404 43.489C118.584 43.375 118.794 43.291 119.034 43.237C119.274 43.183 119.526 43.156 119.79 43.156C119.874 43.156 119.961 43.162 120.051 43.174C120.141 43.18 120.225 43.192 120.303 43.21C120.387 43.222 120.459 43.234 120.519 43.246C120.579 43.258 120.621 43.267 120.645 43.273V43.039C120.645 42.901 120.63 42.766 120.6 42.634C120.57 42.496 120.516 42.376 120.438 42.274C120.36 42.166 120.252 42.082 120.114 42.022C119.982 41.956 119.808 41.923 119.592 41.923C119.316 41.923 119.073 41.944 118.863 41.986C118.659 42.022 118.506 42.061 118.404 42.103L118.305 41.41C118.413 41.362 118.593 41.317 118.845 41.275C119.097 41.227 119.37 41.203 119.664 41.203ZM124.888 46.108C124.51 46.108 124.177 46.048 123.889 45.928C123.607 45.808 123.367 45.64 123.169 45.424C122.977 45.208 122.833 44.953 122.737 44.659C122.641 44.359 122.593 44.029 122.593 43.669C122.593 43.309 122.644 42.979 122.746 42.679C122.854 42.379 123.004 42.121 123.196 41.905C123.388 41.683 123.622 41.512 123.898 41.392C124.18 41.266 124.492 41.203 124.834 41.203C125.044 41.203 125.254 41.221 125.464 41.257C125.674 41.293 125.875 41.35 126.067 41.428L125.878 42.139C125.752 42.079 125.605 42.031 125.437 41.995C125.275 41.959 125.101 41.941 124.915 41.941C124.447 41.941 124.087 42.088 123.835 42.382C123.589 42.676 123.466 43.105 123.466 43.669C123.466 43.921 123.493 44.152 123.547 44.362C123.607 44.572 123.697 44.752 123.817 44.902C123.943 45.052 124.102 45.169 124.294 45.253C124.486 45.331 124.72 45.37 124.996 45.37C125.218 45.37 125.419 45.349 125.599 45.307C125.779 45.265 125.92 45.22 126.022 45.172L126.139 45.874C126.091 45.904 126.022 45.934 125.932 45.964C125.842 45.988 125.74 46.009 125.626 46.027C125.512 46.051 125.389 46.069 125.257 46.081C125.131 46.099 125.008 46.108 124.888 46.108ZM128.729 43.426C128.909 43.564 129.098 43.735 129.296 43.939C129.5 44.143 129.698 44.365 129.89 44.605C130.088 44.839 130.274 45.079 130.448 45.325C130.622 45.565 130.769 45.79 130.889 46H129.908C129.782 45.79 129.635 45.577 129.467 45.361C129.305 45.139 129.134 44.929 128.954 44.731C128.774 44.527 128.591 44.341 128.405 44.173C128.219 44.005 128.042 43.864 127.874 43.75V46H127.037V39.16L127.874 39.016V43.282C128.018 43.138 128.177 42.979 128.351 42.805C128.525 42.631 128.696 42.454 128.864 42.274C129.032 42.094 129.191 41.923 129.341 41.761C129.491 41.593 129.62 41.446 129.728 41.32H130.709C130.571 41.47 130.421 41.635 130.259 41.815C130.097 41.995 129.929 42.178 129.755 42.364C129.581 42.544 129.404 42.727 129.224 42.913C129.05 43.093 128.885 43.264 128.729 43.426ZM132.577 46H131.74V41.32H132.577V46ZM132.154 40.474C132.004 40.474 131.875 40.426 131.767 40.33C131.665 40.228 131.614 40.093 131.614 39.925C131.614 39.757 131.665 39.625 131.767 39.529C131.875 39.427 132.004 39.376 132.154 39.376C132.304 39.376 132.43 39.427 132.532 39.529C132.64 39.625 132.694 39.757 132.694 39.925C132.694 40.093 132.64 40.228 132.532 40.33C132.43 40.426 132.304 40.474 132.154 40.474ZM134.016 41.455C134.208 41.407 134.463 41.356 134.781 41.302C135.099 41.248 135.465 41.221 135.879 41.221C136.251 41.221 136.56 41.275 136.806 41.383C137.052 41.485 137.247 41.632 137.391 41.824C137.541 42.01 137.646 42.235 137.706 42.499C137.766 42.763 137.796 43.054 137.796 43.372V46H136.959V43.552C136.959 43.264 136.938 43.018 136.896 42.814C136.86 42.61 136.797 42.445 136.707 42.319C136.617 42.193 136.497 42.103 136.347 42.049C136.197 41.989 136.011 41.959 135.789 41.959C135.699 41.959 135.606 41.962 135.51 41.968C135.414 41.974 135.321 41.983 135.231 41.995C135.147 42.001 135.069 42.01 134.997 42.022C134.931 42.034 134.883 42.043 134.853 42.049V46H134.016V41.455ZM142.118 45.532C142.046 45.58 141.905 45.643 141.695 45.721C141.491 45.793 141.251 45.829 140.975 45.829C140.693 45.829 140.426 45.784 140.174 45.694C139.928 45.604 139.712 45.466 139.526 45.28C139.34 45.088 139.193 44.851 139.085 44.569C138.977 44.287 138.923 43.951 138.923 43.561C138.923 43.219 138.974 42.907 139.076 42.625C139.178 42.337 139.325 42.091 139.517 41.887C139.715 41.677 139.955 41.515 140.237 41.401C140.519 41.281 140.837 41.221 141.191 41.221C141.581 41.221 141.92 41.251 142.208 41.311C142.502 41.365 142.748 41.416 142.946 41.464V45.64C142.946 46.36 142.76 46.882 142.388 47.206C142.016 47.53 141.452 47.692 140.696 47.692C140.402 47.692 140.123 47.668 139.859 47.62C139.601 47.572 139.376 47.515 139.184 47.449L139.337 46.72C139.505 46.786 139.709 46.843 139.949 46.891C140.195 46.945 140.45 46.972 140.714 46.972C141.212 46.972 141.569 46.873 141.785 46.675C142.007 46.477 142.118 46.162 142.118 45.73V45.532ZM142.109 42.058C142.025 42.034 141.911 42.013 141.767 41.995C141.629 41.971 141.44 41.959 141.2 41.959C140.75 41.959 140.402 42.106 140.156 42.4C139.916 42.694 139.796 43.084 139.796 43.57C139.796 43.84 139.829 44.071 139.895 44.263C139.967 44.455 140.06 44.614 140.174 44.74C140.294 44.866 140.429 44.959 140.579 45.019C140.735 45.079 140.894 45.109 141.056 45.109C141.278 45.109 141.482 45.079 141.668 45.019C141.854 44.953 142.001 44.878 142.109 44.794V42.058ZM147.973 45.379C148.885 45.379 149.341 45.067 149.341 44.443C149.341 44.251 149.299 44.089 149.215 43.957C149.137 43.819 149.029 43.702 148.891 43.606C148.753 43.504 148.594 43.417 148.414 43.345C148.24 43.273 148.054 43.201 147.856 43.129C147.628 43.051 147.412 42.964 147.208 42.868C147.004 42.766 146.827 42.649 146.677 42.517C146.527 42.379 146.407 42.217 146.317 42.031C146.233 41.845 146.191 41.62 146.191 41.356C146.191 40.81 146.377 40.384 146.749 40.078C147.121 39.772 147.634 39.619 148.288 39.619C148.666 39.619 149.008 39.661 149.314 39.745C149.626 39.823 149.854 39.91 149.998 40.006L149.719 40.717C149.593 40.639 149.404 40.564 149.152 40.492C148.906 40.414 148.618 40.375 148.288 40.375C148.12 40.375 147.964 40.393 147.82 40.429C147.676 40.465 147.55 40.519 147.442 40.591C147.334 40.663 147.247 40.756 147.181 40.87C147.121 40.978 147.091 41.107 147.091 41.257C147.091 41.425 147.124 41.566 147.19 41.68C147.256 41.794 147.349 41.896 147.469 41.986C147.589 42.07 147.727 42.148 147.883 42.22C148.045 42.292 148.222 42.364 148.414 42.436C148.684 42.544 148.93 42.652 149.152 42.76C149.38 42.868 149.575 42.997 149.737 43.147C149.905 43.297 150.034 43.477 150.124 43.687C150.214 43.891 150.259 44.14 150.259 44.434C150.259 44.98 150.058 45.4 149.656 45.694C149.26 45.988 148.699 46.135 147.973 46.135C147.727 46.135 147.499 46.117 147.289 46.081C147.085 46.051 146.902 46.015 146.74 45.973C146.578 45.925 146.437 45.877 146.317 45.829C146.203 45.775 146.113 45.73 146.047 45.694L146.308 44.974C146.446 45.052 146.656 45.139 146.938 45.235C147.22 45.331 147.565 45.379 147.973 45.379ZM152.664 46.09C152.148 46.078 151.782 45.967 151.566 45.757C151.35 45.547 151.242 45.22 151.242 44.776V39.16L152.079 39.016V44.641C152.079 44.779 152.091 44.893 152.115 44.983C152.139 45.073 152.178 45.145 152.232 45.199C152.286 45.253 152.358 45.295 152.448 45.325C152.538 45.349 152.649 45.37 152.781 45.388L152.664 46.09ZM154.558 46H153.721V41.32H154.558V46ZM154.135 40.474C153.985 40.474 153.856 40.426 153.748 40.33C153.646 40.228 153.595 40.093 153.595 39.925C153.595 39.757 153.646 39.625 153.748 39.529C153.856 39.427 153.985 39.376 154.135 39.376C154.285 39.376 154.411 39.427 154.513 39.529C154.621 39.625 154.675 39.757 154.675 39.925C154.675 40.093 154.621 40.228 154.513 40.33C154.411 40.426 154.285 40.474 154.135 40.474ZM159.246 43.669C159.246 43.123 159.111 42.703 158.841 42.409C158.571 42.115 158.211 41.968 157.761 41.968C157.509 41.968 157.311 41.977 157.167 41.995C157.029 42.013 156.918 42.034 156.834 42.058V45.01C156.936 45.094 157.083 45.175 157.275 45.253C157.467 45.331 157.677 45.37 157.905 45.37C158.145 45.37 158.349 45.328 158.517 45.244C158.691 45.154 158.832 45.034 158.94 44.884C159.048 44.728 159.126 44.548 159.174 44.344C159.222 44.134 159.246 43.909 159.246 43.669ZM160.119 43.669C160.119 44.023 160.071 44.35 159.975 44.65C159.885 44.95 159.75 45.208 159.57 45.424C159.39 45.64 159.168 45.808 158.904 45.928C158.646 46.048 158.349 46.108 158.013 46.108C157.743 46.108 157.503 46.072 157.293 46C157.089 45.928 156.936 45.859 156.834 45.793V47.665H155.997V41.464C156.195 41.416 156.441 41.365 156.735 41.311C157.035 41.251 157.38 41.221 157.77 41.221C158.13 41.221 158.454 41.278 158.742 41.392C159.03 41.506 159.276 41.668 159.48 41.878C159.684 42.088 159.84 42.346 159.948 42.652C160.062 42.952 160.119 43.291 160.119 43.669Z" fill="black"/>
<defs>
<linearGradient id="paint0_linear" x1="18.2062" y1="7.99765" x2="7.47537" y2="35.8729" gradientUnits="userSpaceOnUse">
<stop offset="0.1416" stop-color="#0C0C0C"/>
<stop offset="1" stop-color="#394355"/>
</linearGradient>
</defs>
</svg>
